<?xml version="1.0" encoding="UTF-8" standalone="no"?>
<svg
   viewBox="0 0 16 16"
   version="1.1"
   id="svg2"
   sodipodi:docname="bpm_snap.svg"
   xml:space="preserve"
   inkscape:version="1.4.3 (0d15f75, 2025-12-25)"
   xmlns:inkscape="http://www.inkscape.org/namespaces/inkscape"
   xmlns:sodipodi="http://sodipodi.sourceforge.net/DTD/sodipodi-0.dtd"
   xmlns="http://www.w3.org/2000/svg"
   xmlns:svg="http://www.w3.org/2000/svg"><defs
     id="defs2" /><sodipodi:namedview
     id="namedview2"
     pagecolor="#ffffff"
     bordercolor="#000000"
     borderopacity="0.25"
     inkscape:showpageshadow="2"
     inkscape:pageopacity="0.0"
     inkscape:pagecheckerboard="0"
     inkscape:deskcolor="#d1d1d1"
     showgrid="false"
     inkscape:zoom="35.664698"
     inkscape:cx="13.164278"
     inkscape:cy="7.4443361"
     inkscape:window-width="1920"
     inkscape:window-height="1009"
     inkscape:window-x="-8"
     inkscape:window-y="-8"
     inkscape:window-maximized="1"
     inkscape:current-layer="svg2" /><path
     d="m 12.141784,12.457685 0.03564,0.03564 a 0.01680147,0.01680147 0 0 1 0,0.02376 l -0.03564,0.03564 -0.0594,-0.0594 0.03564,-0.03564 a 0.01680147,0.01680147 0 0 1 0.02376,0 z m -0.09504,-0.07128 -0.03564,0.03564 -0.0594,-0.0594 0.03564,-0.03564 a 0.01680147,0.01680147 0 0 1 0.02376,0 l 0.03564,0.03564 a 0.01680147,0.01680147 0 0 1 0,0.02376 z m -0.118804,0.118804 a 0.05040463,0.05040463 0 0 0 0.07128,0.07128 l 0.0594,-0.0594 0.0594,0.0594 -0.0594,0.0594 a 0.13441181,0.13441181 0 0 1 -0.190087,-0.190087 l 0.0594,-0.0594 0.0594,0.0594 z"
     id="path1"
     style="fill:#000000;stroke-width:0.0168015"
     transform="matrix(33.333333,0,0,33.333333,-391.94392,-408.77882)" /></svg>
