<?xml version="1.0" encoding="UTF-8" standalone="no"?>
<svg
   viewBox="0 0 16 16"
   version="1.1"
   id="svg5"
   sodipodi:docname="dice.svg"
   inkscape:version="1.4.3 (0d15f75, 2025-12-25)"
   xmlns:inkscape="http://www.inkscape.org/namespaces/inkscape"
   xmlns:sodipodi="http://sodipodi.sourceforge.net/DTD/sodipodi-0.dtd"
   xmlns="http://www.w3.org/2000/svg"
   xmlns:svg="http://www.w3.org/2000/svg">
  <defs
     id="defs5" />
  <sodipodi:namedview
     id="namedview5"
     pagecolor="#ffffff"
     bordercolor="#000000"
     borderopacity="0.25"
     inkscape:showpageshadow="2"
     inkscape:pageopacity="0.0"
     inkscape:pagecheckerboard="0"
     inkscape:deskcolor="#d1d1d1"
     inkscape:zoom="25.21875"
     inkscape:cx="6.9194548"
     inkscape:cy="7.197026"
     inkscape:window-width="1920"
     inkscape:window-height="1009"
     inkscape:window-x="-8"
     inkscape:window-y="-8"
     inkscape:window-maximized="1"
     inkscape:current-layer="svg5" />
  <path
     id="rect1"
     d="M 4 2 C 2.892 2 2 2.892 2 4 L 2 12 C 2 13.108 2.892 14 4 14 L 12 14 C 13.108 14 14 13.108 14 12 L 14 4 C 14 2.892 13.108 2 12 2 L 4 2 z M 5 3.9003906 A 1.1 1.1 0 0 1 6.0996094 5 A 1.1 1.1 0 0 1 5 6.0996094 A 1.1 1.1 0 0 1 3.9003906 5 A 1.1 1.1 0 0 1 5 3.9003906 z M 11 3.9003906 A 1.1 1.1 0 0 1 12.099609 5 A 1.1 1.1 0 0 1 11 6.0996094 A 1.1 1.1 0 0 1 9.9003906 5 A 1.1 1.1 0 0 1 11 3.9003906 z M 8 6.9003906 A 1.1 1.1 0 0 1 9.0996094 8 A 1.1 1.1 0 0 1 8 9.0996094 A 1.1 1.1 0 0 1 6.9003906 8 A 1.1 1.1 0 0 1 8 6.9003906 z M 5 9.9003906 A 1.1 1.1 0 0 1 6.0996094 11 A 1.1 1.1 0 0 1 5 12.099609 A 1.1 1.1 0 0 1 3.9003906 11 A 1.1 1.1 0 0 1 5 9.9003906 z M 11 9.9003906 A 1.1 1.1 0 0 1 12.099609 11 A 1.1 1.1 0 0 1 11 12.099609 A 1.1 1.1 0 0 1 9.9003906 11 A 1.1 1.1 0 0 1 11 9.9003906 z " />
</svg>
