<?xml version="1.0" encoding="UTF-8" standalone="no"?>
<svg
   viewBox="0 0 24 24"
   version="1.1"
   xmlns="http://www.w3.org/2000/svg">
  <path
     d="M 7,10 V 7.5 C 7,4.4624339 9.4624339,2 12.5,2 15.537566,2 18,4.4624339 18,7.5 V 10 H 19 C 19.552285,10 20,10.447715 20,11 V 20 C 20,20.552285 19.552285,21 19,21 H 6 C 5.4477153,21 5,20.552285 5,20 V 11 C 5,10.447715 5.447715,10 6,10 Z m 2,0 h 7 V 7.5 C 16,5.5670034 14.432997,4 12.5,4 10.567003,4 9,5.5670034 9,7.5 Z"
     fill="#000000" />
</svg>
