<?xml version="1.0" encoding="UTF-8"?>
<svg width="380px" height="380px" viewBox="0 0 380 380" version="1.1" xmlns="http://www.w3.org/2000/svg" xmlns:xlink="http://www.w3.org/1999/xlink">
    <title>Rectangle</title>
    <defs>
        <linearGradient x1="69.8021476%" y1="12.8552667%" x2="35.0917113%" y2="100%" id="linearGradient-1">
            <stop stop-color="#DD3408" stop-opacity="0.858666513" offset="0%"></stop>
            <stop stop-color="#801000" stop-opacity="0.858666513" offset="100%"></stop>
        </linearGradient>
    </defs>
    <g id="Page-1" stroke="none" stroke-width="1" fill="none" fill-rule="evenodd">
        <path d="M34.0205811,239.259473 C44.1629704,237.653076 54.5336874,239.999894 62.987249,245.81442 L213.72336,349.493671 C230.630483,361.122722 251.371917,365.816358 271.656696,362.603565 L379.044594,345.594958 C374.940522,365.066234 357.661859,379.682287 336.969435,379.682287 L43.9694347,379.682287 C20.2211905,379.682287 0.969434708,360.430531 0.969434708,336.682287 L0.969434708,244.493287 Z M58.0205811,178.259473 C68.1629704,176.653076 78.5336874,178.999894 86.987249,184.81442 L237.72336,288.493671 C254.630483,300.122722 275.371917,304.816358 295.656696,301.603565 L379.969435,288.249287 L379.969435,305.000287 L265.407178,323.145664 C255.449196,324.722853 245.271113,322.489274 236.903502,316.904431 L236.44051,316.590717 L85.7043994,212.911465 C68.7972762,201.282414 48.0558422,196.588779 27.7710635,199.801572 L0.969434708,204.045287 L0.969434708,187.294287 Z M82.0205811,117.259473 C92.1629704,115.653076 102.533687,117.999894 110.987249,123.81442 L261.72336,227.493671 C278.630483,239.122722 299.371917,243.816358 319.656696,240.603565 L379.969435,231.050287 L379.969435,247.801287 L289.407178,262.145664 C279.449196,263.722853 269.271113,261.489274 260.903502,255.904431 L260.44051,255.590717 L109.704399,151.911465 C92.7972762,140.282414 72.0558422,135.588779 51.7710635,138.801572 L0.969434708,146.847287 L0.969434708,130.096287 Z M107.020581,56.2594729 C117.16297,54.6530762 127.533687,56.9998942 135.987249,62.8144196 L286.72336,166.493671 C303.630483,178.122722 324.371917,182.816358 344.656696,179.603565 L379.969435,174.009287 L379.969435,190.602287 L313.407178,201.145664 C303.449196,202.722853 293.271113,200.489274 284.903502,194.904431 L284.44051,194.590717 L133.704399,90.9114652 C116.797276,79.2824145 96.0558422,74.5887785 75.7710635,77.8015718 L0.969434708,89.6482869 L0.969434708,73.0552869 Z M336.969435,0.682286888 C360.717679,0.682286888 379.969435,19.9340426 379.969435,43.6822869 L379.969435,133.562287 L338.407178,140.145664 C328.449196,141.722853 318.271113,139.489274 309.903502,133.904431 L309.44051,133.590717 L158.704399,29.9114652 C141.797276,18.2824145 121.055842,13.5887785 100.771064,16.8015718 L2.47309081,32.3694379 C7.43944502,14.1095035 24.1363926,0.682286888 43.9694347,0.682286888 L336.969435,0.682286888 Z" id="Rectangle" fill="url(#linearGradient-1)"></path>
    </g>
</svg>
