<?xml version="1.0" encoding="UTF-8"?>
<svg width="500px" height="501px" viewBox="0 0 500 501" version="1.1" xmlns="http://www.w3.org/2000/svg" xmlns:xlink="http://www.w3.org/1999/xlink">
    <title>Rectangle</title>
    <defs>
        <linearGradient x1="69.8021476%" y1="12.8552667%" x2="35.0917113%" y2="100%" id="linearGradient-1">
            <stop stop-color="#DD3408" stop-opacity="0.858666513" offset="0%"></stop>
            <stop stop-color="#801000" stop-opacity="0.858666513" offset="100%"></stop>
        </linearGradient>
    </defs>
    <g id="Page-1" stroke="none" stroke-width="1" fill="none" fill-rule="evenodd">
        <path d="M64.0511464,324.577186 C74.1935357,322.970789 84.5642527,325.317607 93.0178143,331.132133 L243.753925,434.811385 C260.661048,446.440435 281.402482,451.134071 301.687261,447.921278 L323.53,444.461 L279.905592,488.087878 C263.113047,504.880423 235.886953,504.880423 219.094408,488.087878 L56.743,325.734 Z M104.051146,263.577186 C114.193536,261.970789 124.564253,264.317607 133.017814,270.132133 L283.753925,373.811385 C300.661048,385.440435 321.402482,390.134071 341.687261,386.921278 L388.48,379.509 L371.589,396.401 L295.437743,408.463377 C285.479761,410.040566 275.301679,407.806988 266.934067,402.222144 L266.471076,401.90843 L115.734965,298.229178 C98.8278415,286.600128 78.0864075,281.906492 57.8016288,285.119285 L21.826,290.817 L11.9121215,280.905592 C11.138714,280.132184 10.4009269,279.336645 9.69876039,278.521012 Z M141.051146,198.577186 C151.193536,196.970789 161.564253,199.317607 170.017814,205.132133 L320.753925,308.811385 C337.661048,320.440435 358.402482,325.134071 378.687261,321.921278 L458.752,309.239 L436.54,331.449 L335.437743,347.463377 C325.479761,349.040566 315.301679,346.806988 306.934067,341.222144 L306.471076,340.90843 L155.734965,237.229178 C138.827841,225.600128 118.086407,220.906492 97.8016288,224.119285 L0.743417471,239.491657 C2.61790831,232.385487 6.34080966,225.66572 11.9121215,220.094408 L13.177,218.83 Z M174.051146,131.577186 C184.193536,129.970789 194.564253,132.317607 203.017814,138.132133 L353.753925,241.811385 C370.661048,253.440435 391.402482,258.134071 411.687261,254.921278 L498.658141,241.146143 C500.226758,248.216848 499.993464,255.606809 497.958258,262.58255 L372.437743,282.463377 C362.295354,284.069774 351.924637,281.722956 343.471076,275.90843 L192.734965,172.229178 C175.827841,160.600128 155.086407,155.906492 134.801629,159.119285 L61.235,170.77 L86.575,145.431 Z M279.905592,12.9121215 L471.925,204.932 L405.437743,215.463377 C395.479761,217.040566 385.301679,214.806988 376.934067,209.222144 L376.471076,208.90843 L225.734965,105.229178 C208.827841,93.6001276 188.086407,88.9064916 167.801629,92.1192849 L134.635,97.371 L219.094408,12.9121215 C235.886953,-3.88042302 263.113047,-3.88042302 279.905592,12.9121215 Z" id="Rectangle" fill="url(#linearGradient-1)"></path>
    </g>
</svg>
