<?xml version="1.0" encoding="UTF-8" standalone="no"?>
<svg
   viewBox="0 0 16 16"
   version="1.1"
   id="svg7"
   sodipodi:docname="loop.svg"
   xml:space="preserve"
   inkscape:version="1.4.3 (0d15f75, 2025-12-25)"
   xmlns:inkscape="http://www.inkscape.org/namespaces/inkscape"
   xmlns:sodipodi="http://sodipodi.sourceforge.net/DTD/sodipodi-0.dtd"
   xmlns="http://www.w3.org/2000/svg"
   xmlns:svg="http://www.w3.org/2000/svg"><defs
     id="defs7" /><sodipodi:namedview
     id="namedview7"
     pagecolor="#ffffff"
     bordercolor="#000000"
     borderopacity="0.25"
     inkscape:showpageshadow="2"
     inkscape:pageopacity="0.0"
     inkscape:pagecheckerboard="0"
     inkscape:deskcolor="#d1d1d1"
     inkscape:zoom="35.664698"
     inkscape:cx="7.3602193"
     inkscape:cy="8.4256986"
     inkscape:window-width="1920"
     inkscape:window-height="1009"
     inkscape:window-x="-8"
     inkscape:window-y="-8"
     inkscape:window-maximized="1"
     inkscape:current-layer="svg7" /><g
     style="clip-rule:evenodd;fill-rule:evenodd;image-rendering:optimizeQuality;shape-rendering:geometricPrecision;text-rendering:geometricPrecision"
     id="g7"
     transform="matrix(0.02482406,0,0,0.02482406,1.6450402,2.7568302)"><path
       fill-rule="nonzero"
       d="M 97.761,63.347 H 77.388 c -21.303,0 -40.662,8.705 -54.671,22.714 C 8.705,100.073 0,119.443 0,140.735 v 188.33 c 0,21.296 8.709,40.655 22.721,54.667 14.012,14.012 33.374,22.721 54.667,22.721 h 357.224 c 21.293,0 40.662,-8.705 54.675,-22.717 C 503.295,369.727 512,350.368 512,329.065 v -188.33 c 0,-21.307 -8.698,-40.666 -22.71,-54.678 -14.012,-14.012 -33.367,-22.71 -54.678,-22.71 H 295.959 V 14.426 C 295.959,6.459 289.5,0 281.533,0 a 14.376,14.376 0 0 0 -9.985,4.013 L 171.751,82.84 c -6.223,4.915 -7.281,13.947 -2.366,20.17 a 14.348,14.348 0 0 0 2.61,2.559 l 100.636,79.489 c 6.223,4.914 15.255,3.856 20.17,-2.366 a 14.302,14.302 0 0 0 3.089,-8.902 h 0.069 v -52.737 h 138.653 c 5.386,0 10.304,2.224 13.881,5.801 3.577,3.577 5.801,8.498 5.801,13.881 v 188.33 c 0,5.379 -2.228,10.297 -5.804,13.874 -3.581,3.58 -8.502,5.808 -13.878,5.808 H 77.388 c -5.368,0 -10.29,-2.232 -13.87,-5.812 -3.58,-3.58 -5.812,-8.498 -5.812,-13.87 v -188.33 c 0,-5.376 2.228,-10.297 5.808,-13.877 3.577,-3.577 8.495,-5.805 13.874,-5.805 h 20.373 z"
       id="path1" /></g></svg>
